<svg width="160" height="35" viewBox="0 0 160 35" fill="none" xmlns="http://www.w3.org/2000/svg">
    <g clip-path="url(#clip0_422_854)">
        <path fill-rule="evenodd" clip-rule="evenodd"
            d="M0.0273438 0H34.7347V34.55H0.0273438V0ZM6.6189 7.12159L11.3184 7.14197L11.3387 7.44718C17.5031 7.44718 19.3137 7.46346 19.3422 7.47974C19.3666 7.49602 19.3951 7.60994 19.4032 7.73206L19.4154 7.95587C25.2095 7.97215 26.9102 7.96399 26.9265 7.94771C26.9428 7.92737 26.9469 7.89481 26.9306 7.87041C26.9143 7.84597 26.7719 7.72796 26.6132 7.60588C26.4545 7.4838 26.2348 7.33323 26.125 7.26405C26.0151 7.19893 25.7873 7.07686 25.6204 6.9914C25.4536 6.90594 25.3031 6.83676 25.2868 6.83676C25.2664 6.83676 25.1932 6.81232 25.124 6.77976C25.0508 6.74721 24.8636 6.68619 24.7049 6.64141C24.5462 6.59663 24.2574 6.53155 24.0539 6.49489C23.7243 6.43387 22.8333 6.42981 15.1554 6.42981H6.6189V7.12159ZM6.6189 9.07498L11.3184 9.09532L11.3387 9.35985C17.5031 9.35985 19.3137 9.37613 19.3422 9.39241C19.3666 9.40869 19.3951 9.5226 19.4032 9.64468L19.4154 9.86853C26.837 9.88481 28.3466 9.87665 28.3466 9.84816C28.3466 9.82376 28.2815 9.67318 28.2001 9.51042C28.1187 9.35169 27.9763 9.09938 27.8787 8.9529C27.7851 8.80638 27.6345 8.61103 27.5491 8.51339L27.3904 8.33838L6.6189 8.34248V9.07498ZM6.6189 10.9876L11.3184 11.008L11.3387 11.3132H15.3669C15.3669 11.069 15.3914 11.0161 15.4483 10.9876C15.5012 10.9632 16.4411 10.9469 18.0239 10.9469C19.4724 10.9469 20.6198 10.9632 20.7703 10.9876C20.9087 11.012 21.0552 11.0446 21.0959 11.0609C21.1325 11.0812 21.2545 11.1423 21.3685 11.1952C21.4784 11.2481 21.6899 11.4068 21.8364 11.5492L22.1009 11.8015H28.7941C28.7535 11.2806 28.6924 10.9388 28.6354 10.7028L28.5297 10.2755L6.6189 10.2551V10.9876ZM6.6189 12.9003H11.3387V13.2259H15.3669V12.2085H6.6189V12.9003ZM22.3409 12.3183C22.3572 12.3835 22.3776 12.7212 22.3898 13.0712L22.4061 13.7142L28.5297 13.7183C28.607 13.4456 28.6558 13.2503 28.6883 13.1038C28.7209 12.9573 28.7575 12.6968 28.7697 12.5218L28.7941 12.2085H22.3124L22.3409 12.3183ZM6.6189 14.8089C7.61167 14.8496 8.63299 14.8496 9.52812 14.8333C10.4233 14.813 11.1964 14.813 11.2452 14.8252C11.3184 14.8455 11.3387 14.8821 11.3387 14.992V15.1345C17.4868 15.1345 19.3015 15.1466 19.334 15.1548C19.3788 15.1711 19.3951 15.2403 19.3951 15.4193V15.6635L27.4311 15.6431C27.8583 15.0775 28.0658 14.7519 28.1635 14.5566C28.2652 14.3612 28.3384 14.1822 28.3262 14.1578C28.314 14.1333 24.652 14.1171 17.4624 14.1171H6.6189V14.8089ZM6.58634 16.4408L6.59856 16.7419L11.3387 16.7623V17.0878H19.3951V17.5762C22.5892 17.5762 23.6348 17.5599 23.8301 17.5354C24.0214 17.5151 24.3591 17.45 24.5829 17.393C24.8067 17.3401 25.1159 17.2384 25.2746 17.1733C25.4292 17.1081 25.6855 16.9861 25.8442 16.9047C25.9988 16.8192 26.2104 16.6971 26.3121 16.628C26.4139 16.5628 26.6092 16.4123 26.7516 16.2983C26.8899 16.1844 27.0039 16.0786 27.0039 16.0623C27.0039 16.046 22.4182 16.0297 16.8114 16.0297C8.3156 16.0297 6.61484 16.0419 6.59446 16.0867C6.58228 16.1152 6.57822 16.278 6.58634 16.4408ZM6.6189 18.6749H11.3387V19.0005H19.3951L19.4154 19.4684C25.6204 19.4888 26.9062 19.4766 26.9265 19.4522C26.951 19.4237 26.8329 19.3138 26.6255 19.1551C26.4424 19.0167 26.1453 18.8173 25.9663 18.7156C25.7873 18.6139 25.4739 18.4633 25.2746 18.3819C25.0711 18.2964 24.7619 18.1947 24.5829 18.15C24.4038 18.1092 24.115 18.0523 23.94 18.0278C23.7284 17.9994 20.9169 17.9831 15.1228 17.9831H6.6189V18.6749ZM6.58634 20.2864L6.59856 20.5672L11.3184 20.6079L11.3387 20.9538H15.3669V19.8958C7.3594 19.8958 6.61484 19.9079 6.59446 19.9527C6.58228 19.9812 6.57822 20.1359 6.58634 20.2864ZM21.3766 20.0789C21.5312 20.144 21.7347 20.2742 21.8283 20.3637C21.9259 20.4533 22.0439 20.5916 22.0927 20.6689C22.1416 20.7503 22.2311 20.9498 22.288 21.1166L22.3979 21.4218C26.9876 21.4381 28.3303 21.4299 28.3507 21.4137C28.3669 21.3974 28.3303 21.2835 28.2693 21.1573C28.2082 21.0352 28.0943 20.8236 28.017 20.6893C27.9397 20.555 27.781 20.3231 27.663 20.1725L27.4514 19.8958C22.5322 19.8958 21.104 19.912 21.104 19.9283C21.104 19.9446 21.2261 20.0138 21.3766 20.0789ZM6.6189 22.5002C10.1832 22.5002 11.2452 22.5124 11.2777 22.5206C11.3143 22.5369 11.3387 22.5938 11.3387 22.6833V22.8258H15.3669V21.8084H6.6189V22.5002ZM22.4061 23.3548L28.8145 23.3589C28.7657 22.8665 28.7128 22.5531 28.668 22.3375C28.6192 22.1258 28.5663 21.9223 28.5459 21.8817C28.5093 21.8165 28.3222 21.8084 25.4618 21.8084H22.4101L22.4061 23.3548ZM6.6189 24.4536L11.3184 24.4739L11.3591 24.7588L19.3951 24.7791V25.2675L28.489 25.2715C28.5704 25.0966 28.6192 24.9175 28.6558 24.7588C28.6883 24.6042 28.7331 24.3193 28.7535 24.128C28.7697 23.9408 28.7779 23.7699 28.7697 23.7537C28.7616 23.7374 23.7732 23.7211 17.6862 23.7211H6.6189V24.4536ZM6.6189 26.3663L11.3184 26.3866L11.3387 26.6918H19.3951V27.1802L27.3904 27.1842C27.6182 26.9156 27.7444 26.7447 27.8217 26.6308C27.899 26.5209 27.9804 26.3907 28.0048 26.3459C28.0292 26.3011 28.0943 26.1831 28.1472 26.0814C28.2042 25.9837 28.2693 25.8494 28.2978 25.7884L28.3466 25.6744H6.6189V26.3663ZM6.6189 28.2789L11.3184 28.2993L11.3387 28.6045L19.3748 28.6248L19.4154 29.0725C22.288 29.0928 23.3134 29.0806 23.5453 29.0562C23.7813 29.0358 24.119 28.9911 24.2981 28.9545C24.4771 28.9178 24.6887 28.869 24.766 28.8446C24.8474 28.8202 25.0671 28.7347 25.2542 28.6614C25.4455 28.5882 25.6652 28.4946 25.7425 28.4539C25.8239 28.4132 25.9704 28.3278 26.068 28.2626C26.1697 28.2016 26.3243 28.0998 26.4139 28.0429C26.5034 27.9818 26.597 27.9208 26.6173 27.9045C26.6417 27.8842 26.7231 27.815 26.8004 27.7499L26.9428 27.6278H6.6189V28.2789Z"
            fill="white" />
        <path
            d="M156.485 23.835V21.4933H157.643C157.774 21.4933 157.899 21.5229 158.018 21.5822C158.138 21.6393 158.236 21.7249 158.31 21.8392C158.386 21.9534 158.424 22.0941 158.424 22.2612C158.424 22.4283 158.385 22.5711 158.307 22.6896C158.228 22.8059 158.127 22.8948 158.002 22.9561C157.879 23.0175 157.75 23.0481 157.615 23.0481H156.806V22.6261H157.475C157.558 22.6261 157.634 22.5954 157.704 22.5341C157.773 22.4727 157.808 22.3818 157.808 22.2612C157.808 22.1343 157.773 22.0455 157.704 21.9947C157.634 21.9439 157.561 21.9185 157.485 21.9185H157.063V23.835H156.485ZM157.954 22.7467L158.506 23.835H157.872L157.348 22.7467H157.954ZM157.396 25.2312C157.045 25.2312 156.716 25.1656 156.409 25.0345C156.102 24.9033 155.833 24.7214 155.6 24.4887C155.367 24.256 155.185 23.9863 155.054 23.6796C154.923 23.3728 154.857 23.0439 154.857 22.6927C154.857 22.3416 154.923 22.0127 155.054 21.7059C155.185 21.3992 155.367 21.1295 155.6 20.8968C155.833 20.6641 156.102 20.4822 156.409 20.351C156.716 20.2198 157.045 20.1543 157.396 20.1543C157.747 20.1543 158.076 20.2198 158.383 20.351C158.69 20.4822 158.959 20.6641 159.192 20.8968C159.425 21.1295 159.607 21.3992 159.738 21.7059C159.869 22.0127 159.935 22.3416 159.935 22.6927C159.935 23.0439 159.869 23.3728 159.738 23.6796C159.607 23.9863 159.425 24.256 159.192 24.4887C158.959 24.7214 158.69 24.9033 158.383 25.0345C158.076 25.1656 157.747 25.2312 157.396 25.2312ZM157.396 24.5807C157.743 24.5807 158.059 24.4961 158.344 24.3269C158.63 24.1576 158.857 23.9302 159.027 23.6447C159.198 23.357 159.284 23.0397 159.284 22.6927C159.284 22.3458 159.198 22.0296 159.027 21.744C158.857 21.4563 158.63 21.2278 158.344 21.0586C158.059 20.8894 157.743 20.8048 157.396 20.8048C157.047 20.8048 156.729 20.8894 156.444 21.0586C156.158 21.2278 155.93 21.4563 155.758 21.744C155.589 22.0296 155.505 22.3458 155.505 22.6927C155.505 23.0397 155.589 23.3559 155.758 23.6415C155.93 23.9271 156.158 24.1555 156.444 24.3269C156.729 24.4961 157.047 24.5807 157.396 24.5807Z"
            fill="white" />
        <path fill-rule="evenodd" clip-rule="evenodd"
            d="M15.0814 6.34766C20.7086 6.34766 23.5934 6.35988 23.6057 6.38834C23.6178 6.41683 20.7656 6.42905 15.0814 6.42905C9.39721 6.42905 6.54494 6.41683 6.55712 6.38834C6.5734 6.35988 9.45823 6.34766 15.0814 6.34766ZM6.60596 6.59181C6.61412 6.66915 6.61412 6.81562 6.60596 6.91736C6.59784 7.0191 6.58968 6.95402 6.58968 6.77494C6.58968 6.59587 6.59784 6.51451 6.60596 6.59181ZM15.3377 7.45454C17.5349 7.4627 18.6823 7.47082 17.8889 7.47488C17.0955 7.48304 15.2889 7.49116 13.8729 7.49526C12.461 7.50338 11.3136 7.49526 11.3218 7.47898C11.334 7.4586 13.1406 7.45048 15.3377 7.45454ZM28.3458 9.73754C28.3784 9.74566 28.4069 9.7986 28.4069 9.94913L23.8986 9.95729C20.318 9.96541 19.3944 9.95729 19.3944 9.91661C19.3944 9.87995 20.3099 9.86777 23.8579 9.87589C27.3734 9.88405 28.3296 9.87589 28.354 9.83522C28.3703 9.81078 28.3621 9.7701 28.3337 9.75382C28.2984 9.72942 28.3025 9.72399 28.3458 9.73754ZM90.518 9.8474H93.4069V17.3149C93.4069 23.9156 93.3987 24.7865 93.346 24.8028C93.3132 24.815 92.6909 24.8232 91.9624 24.8232C91.2339 24.8232 90.6116 24.815 90.5789 24.8028C90.5262 24.7865 90.518 23.9156 90.518 17.3149V9.8474ZM107.2 9.8474L110.11 9.86777L110.118 17.3149C110.126 23.1791 110.118 24.7703 110.077 24.7906C110.053 24.8069 109.418 24.8232 108.673 24.8232C107.933 24.8232 107.294 24.815 107.261 24.8028C107.209 24.7865 107.2 23.9156 107.2 17.3149V9.8474ZM142.518 9.8474V12.4722C142.518 14.1814 142.53 15.1052 142.558 15.1174C142.579 15.1296 142.689 15.0238 142.799 14.8854C142.909 14.743 143.067 14.5721 143.153 14.5029C143.242 14.4337 143.393 14.3239 143.495 14.2628C143.596 14.1977 143.743 14.1122 143.82 14.0756C143.897 14.039 144.028 13.9779 144.105 13.9413C144.182 13.9088 144.365 13.8436 144.512 13.7989C144.658 13.7541 144.923 13.6972 145.101 13.6687C145.281 13.6443 145.639 13.6198 145.895 13.6198C146.151 13.6239 146.517 13.6524 146.709 13.6849C146.9 13.7175 147.201 13.7948 147.38 13.8559C147.559 13.9129 147.844 14.0349 148.011 14.1285C148.178 14.2181 148.442 14.389 148.601 14.507C148.756 14.625 149.012 14.857 149.166 15.0238C149.325 15.1866 149.545 15.4674 149.663 15.6464C149.777 15.8255 149.935 16.1022 150.013 16.2569C150.09 16.4156 150.204 16.6719 150.261 16.8266C150.322 16.9853 150.416 17.2946 150.473 17.5184C150.53 17.7422 150.603 18.2021 150.639 18.5358C150.684 18.9427 150.696 19.309 150.68 19.6345C150.668 19.9031 150.635 20.2775 150.611 20.4688C150.587 20.6601 150.53 20.9612 150.489 21.1402C150.444 21.3193 150.371 21.5838 150.322 21.7303C150.277 21.8768 150.151 22.1698 150.049 22.3815C149.944 22.5931 149.769 22.9064 149.655 23.0733C149.545 23.2401 149.301 23.5331 149.109 23.7244C148.918 23.9156 148.617 24.172 148.438 24.2941C148.259 24.4162 147.958 24.583 147.767 24.6685C147.575 24.754 147.238 24.8679 147.014 24.929C146.705 25.0063 146.46 25.0388 146.017 25.0551C145.553 25.0755 145.338 25.0633 145.02 25.0063C144.797 24.9696 144.475 24.8923 144.308 24.8394C144.142 24.7865 143.893 24.6929 143.759 24.6278C143.625 24.5627 143.397 24.4203 143.25 24.3104C143.108 24.2005 142.917 24.0214 142.831 23.9075C142.742 23.7976 142.628 23.6349 142.575 23.5535C142.522 23.468 142.457 23.407 142.437 23.4192C142.412 23.4314 142.396 23.7041 142.396 24.111C142.396 24.6726 142.384 24.7865 142.335 24.8028C142.302 24.815 141.696 24.8232 140.992 24.8232C139.906 24.8232 139.702 24.815 139.649 24.7621C139.597 24.7092 139.588 23.8302 139.588 17.3353C139.588 13.2861 139.6 9.94101 139.613 9.90845C139.633 9.85555 139.832 9.8474 142.518 9.8474ZM144.003 16.0371C143.844 16.1022 143.625 16.2284 143.515 16.3179C143.401 16.4034 143.234 16.5621 143.144 16.6719C143.051 16.7778 142.913 16.9853 142.831 17.1318C142.754 17.2783 142.64 17.5428 142.587 17.7219C142.53 17.9009 142.461 18.1939 142.432 18.373C142.404 18.552 142.38 18.9997 142.38 19.37C142.38 19.7404 142.404 20.1799 142.432 20.3467C142.461 20.5135 142.522 20.7821 142.567 20.9368C142.612 21.0955 142.713 21.36 142.795 21.5269C142.904 21.7547 143.018 21.9094 143.246 22.1373C143.454 22.3408 143.645 22.4873 143.82 22.5727C143.967 22.646 144.202 22.7314 144.349 22.764C144.495 22.8006 144.8 22.8291 145.028 22.8291C145.26 22.8291 145.541 22.8088 145.659 22.7843C145.777 22.7599 145.993 22.6826 146.139 22.6175C146.286 22.5524 146.493 22.4222 146.607 22.3326C146.717 22.239 146.88 22.0803 146.965 21.9786C147.051 21.8768 147.201 21.6286 147.299 21.4251C147.397 21.2257 147.518 20.8961 147.567 20.6926C147.641 20.3955 147.661 20.1758 147.677 19.5125C147.689 18.8776 147.677 18.6172 147.624 18.3323C147.588 18.1329 147.523 17.848 147.474 17.7015C147.429 17.5551 147.34 17.3353 147.278 17.2132C147.217 17.0911 147.095 16.8999 147.01 16.7859C146.925 16.676 146.799 16.5295 146.729 16.4685C146.664 16.4034 146.534 16.3016 146.444 16.2365C146.355 16.1755 146.188 16.0819 146.078 16.0331C145.964 15.9842 145.741 15.9191 145.578 15.8865C145.415 15.854 145.158 15.8336 145.008 15.8336C144.857 15.8377 144.634 15.858 144.512 15.8784C144.389 15.8988 144.158 15.9679 144.003 16.0371ZM47.3636 10.0631C50.9849 10.0712 51.3472 10.0794 51.7009 10.1485C51.9125 10.1893 52.2627 10.2788 52.4743 10.3439C52.6859 10.4131 52.9787 10.527 53.1251 10.6003C53.2715 10.6735 53.5077 10.82 53.6541 10.9258C53.8005 11.0316 54.0324 11.2351 54.171 11.3776C54.3135 11.52 54.4966 11.7438 54.5778 11.874C54.659 12.0002 54.7609 12.1711 54.8015 12.2484C54.8421 12.3257 54.9193 12.5211 54.9724 12.6757C55.0251 12.8344 55.0946 13.0705 55.1231 13.2048C55.1516 13.3431 55.1758 13.7053 55.1758 14.039C55.1758 14.4826 55.1555 14.6983 55.0985 14.9139C55.0579 15.0726 54.9888 15.2802 54.9439 15.3819C54.899 15.4837 54.7854 15.6831 54.6957 15.8255C54.6023 15.972 54.3986 16.204 54.244 16.3464C54.0855 16.4888 53.8169 16.6801 53.6459 16.7778C53.471 16.8714 53.3285 16.965 53.3285 16.9812C53.3285 16.9975 53.4589 17.0748 53.6217 17.1562C53.7845 17.2376 54.0203 17.3719 54.1425 17.4492C54.2643 17.5266 54.4474 17.6649 54.5493 17.7544C54.6511 17.848 54.83 18.0434 54.9479 18.1899C55.0618 18.3364 55.2246 18.5724 55.298 18.7189C55.3753 18.8654 55.4893 19.1503 55.5502 19.3497C55.656 19.6915 55.6599 19.7688 55.6642 20.4688C55.6681 21.0711 55.6521 21.2908 55.5908 21.5675C55.5463 21.7588 55.4444 22.0803 55.3632 22.2797C55.2816 22.4832 55.1309 22.7762 55.0294 22.9308C54.9236 23.0895 54.7284 23.3297 54.5942 23.4721C54.4556 23.6104 54.2319 23.8099 54.0894 23.9116C53.9512 24.0174 53.699 24.168 53.5319 24.2534C53.3652 24.3348 53.1091 24.4447 52.9623 24.4976C52.8159 24.5464 52.4946 24.636 51.8028 24.7947L47.6525 24.815C43.8887 24.8313 43.494 24.8272 43.4292 24.7662C43.364 24.7051 43.3597 24.3023 43.3597 17.437C43.3597 13.4408 43.3722 10.1445 43.3843 10.1119C43.4089 10.055 43.836 10.0509 47.3636 10.0631ZM46.4849 14.332L46.4931 16.1551C49.8661 16.1551 50.285 16.1429 50.5821 16.0941C50.8058 16.0534 51.0337 15.9842 51.1719 15.9109C51.2941 15.8459 51.4733 15.7156 51.5666 15.6261C51.6646 15.5366 51.7864 15.386 51.8395 15.2924C51.8965 15.1947 51.9695 14.9994 52.0101 14.8529C52.0593 14.6575 52.0714 14.4866 52.055 14.2018C52.0429 13.9332 52.0062 13.7419 51.941 13.571C51.8883 13.4367 51.7907 13.2536 51.7212 13.164C51.6521 13.0745 51.4893 12.928 51.355 12.8385C51.2211 12.7449 50.9728 12.6269 50.8058 12.574C50.5009 12.4763 50.4888 12.4722 48.5274 12.46C47.4409 12.4519 46.5337 12.46 46.5173 12.4763C46.4931 12.4926 46.4806 13.2902 46.4849 14.332ZM46.5013 20.3874L46.5134 22.3204C50.7979 22.3204 50.8304 22.3204 51.1313 22.2268C51.2984 22.178 51.526 22.0844 51.64 22.0193C51.7497 21.9541 51.9207 21.8158 52.0183 21.7059C52.1159 21.596 52.2299 21.4414 52.2709 21.3641C52.3072 21.2868 52.3724 21.1199 52.413 20.9978C52.4661 20.8391 52.4864 20.6519 52.4821 20.3467C52.4821 20.0415 52.4618 19.8502 52.4048 19.6753C52.3603 19.541 52.2709 19.3497 52.2014 19.248C52.1323 19.1462 52.0062 18.9997 51.9207 18.9224C51.8313 18.841 51.6806 18.7271 51.5791 18.6701C51.4772 18.609 51.2574 18.5195 51.0907 18.4707C50.7937 18.3811 50.7246 18.3771 48.6617 18.3648C46.9323 18.3527 46.5337 18.3567 46.5134 18.4015C46.5013 18.43 46.497 19.3253 46.5013 20.3874ZM119.122 10.0509L119.143 22.1983L126.934 22.2187L126.914 24.8028L121.51 24.815C116.754 24.8232 116.103 24.815 116.05 24.7621C115.997 24.7092 115.989 23.8383 115.989 17.437C115.989 13.4408 116.001 10.1445 116.014 10.1119C116.034 10.059 116.245 10.0509 119.122 10.0509ZM6.60596 10.4375C6.61412 10.527 6.61412 10.6817 6.60596 10.7834C6.59784 10.8851 6.58968 10.8119 6.58968 10.6206C6.58968 10.4294 6.59784 10.348 6.60596 10.4375ZM18.0313 10.9543C19.4188 10.9543 20.6354 10.9665 20.7371 10.9828C20.9161 11.0153 20.9161 11.0153 20.7981 11.0438C20.7289 11.0642 20.6639 11.0601 20.6476 11.0438C20.6313 11.0235 19.4473 11.0153 18.011 11.0276C16.5787 11.0398 15.4028 11.0357 15.3988 11.0194C15.3947 11.0072 15.415 10.9869 15.4476 10.9747C15.4801 10.9624 16.6438 10.9543 18.0313 10.9543ZM8.93334 10.9869C10.4836 10.9869 11.2973 11.0032 11.2973 11.0276C11.2973 11.0561 10.4917 11.0683 8.95774 11.0683C7.44008 11.0683 6.61002 11.0561 6.59374 11.0276C6.57746 11.0032 7.36684 10.9869 8.93334 10.9869ZM10.9718 12.1263C13.8729 12.1263 15.3662 12.1426 15.3662 12.167C15.3662 12.1955 13.8811 12.2077 6.61818 12.2077L6.6019 12.8792L6.58156 12.5333C6.56528 12.342 6.56122 12.1752 6.56934 12.1589C6.5775 12.1426 8.55903 12.1263 10.9718 12.1263ZM25.5098 12.1304C27.2798 12.1304 28.7609 12.1467 28.7934 12.1589C28.826 12.1752 28.8585 12.2199 28.8626 12.2606C28.8707 12.2972 28.8544 12.3298 28.8341 12.3298C28.8097 12.3298 28.7934 12.3013 28.7934 12.2687C28.7934 12.2158 28.4069 12.2077 25.5587 12.2077C22.9994 12.2077 22.3239 12.2199 22.3239 12.2606C22.3239 12.2932 22.3104 12.2891 22.2833 12.2484C22.2629 12.2158 22.2548 12.1752 22.267 12.1589C22.2792 12.1426 23.7359 12.1263 25.5098 12.1304ZM13.3399 13.2332C14.4548 13.2292 15.3744 13.2414 15.3825 13.2577C15.3906 13.2739 14.8006 13.2821 14.0683 13.278C13.3399 13.2699 12.4204 13.2617 12.0298 13.2536C11.6391 13.2495 12.2291 13.2414 13.3399 13.2332ZM62.4837 13.6198C62.7195 13.628 63.0571 13.6524 63.2363 13.6768C63.4151 13.7012 63.6798 13.746 63.8262 13.7826C63.9726 13.8192 64.2455 13.9006 64.4364 13.9698C64.6277 14.0349 64.9369 14.1733 65.1282 14.271C65.3195 14.3727 65.592 14.5436 65.7388 14.6494C65.8852 14.7593 66.1171 14.9628 66.2514 15.1052C66.3896 15.2476 66.6094 15.5081 66.7355 15.6871C66.8615 15.8662 67.0364 16.1511 67.1219 16.3179C67.2074 16.4847 67.3296 16.7778 67.3948 16.969C67.4639 17.1603 67.5572 17.4899 67.6021 17.7015C67.6509 17.9132 67.7079 18.2916 67.7325 18.5358C67.7528 18.784 67.7731 19.1706 67.7731 19.4026C67.7731 19.6305 67.7528 19.8543 67.7325 19.8991C67.6915 19.9805 67.6509 19.9805 59.7372 19.9805L59.7657 20.3182C59.7817 20.5013 59.8305 20.7984 59.8754 20.9775C59.9203 21.1565 60.0464 21.478 60.1522 21.6897C60.2943 21.9786 60.4126 22.1454 60.6117 22.3408C60.7948 22.5239 60.9701 22.6541 61.1817 22.7559C61.3484 22.8372 61.5803 22.9227 61.6982 22.9471C61.8161 22.9715 62.1093 22.9919 62.3494 22.9919C62.6625 22.9919 62.8822 22.9675 63.1141 22.9105C63.2933 22.8617 63.5291 22.7721 63.6431 22.7111C63.7532 22.646 63.9566 22.4791 64.0909 22.3367C64.2412 22.178 64.4001 21.9501 64.5016 21.7507C64.5914 21.5716 64.6726 21.4007 64.6847 21.3722C64.6968 21.3274 64.7823 21.3274 65.1282 21.36C65.3644 21.3803 65.9504 21.4292 66.4302 21.4658C66.9104 21.5025 67.3823 21.5431 67.476 21.5513C67.6427 21.5675 67.6509 21.5716 67.6267 21.6815C67.6142 21.7426 67.5572 21.9094 67.4963 22.0559C67.4393 22.2024 67.3132 22.4588 67.2117 22.6256C67.1137 22.7925 66.9673 23.0122 66.8861 23.114C66.8046 23.2157 66.6543 23.3866 66.5524 23.4965C66.4509 23.6064 66.2229 23.8139 66.0437 23.9563C65.8649 24.1028 65.6002 24.286 65.4538 24.3674C65.3074 24.4488 65.0712 24.5627 64.9248 24.6237C64.7784 24.6807 64.5141 24.7703 64.3349 24.8191C64.1557 24.8679 63.7692 24.9452 63.4803 24.99C63.1344 25.0388 62.7359 25.0673 62.3209 25.0673C61.8813 25.0673 61.5436 25.0429 61.202 24.9859C60.9334 24.9412 60.6117 24.8761 60.4899 24.8435C60.3677 24.8069 60.1643 24.7418 60.0421 24.697C59.9203 24.6522 59.6884 24.5505 59.5334 24.4691C59.3749 24.3918 59.1106 24.2331 58.9435 24.1191C58.7768 24.0011 58.4919 23.761 58.3131 23.5819C58.13 23.4029 57.8817 23.1018 57.7556 22.9105C57.6295 22.7192 57.4503 22.4099 57.3648 22.2187C57.2754 22.0274 57.1575 21.7263 57.1005 21.5472C57.0435 21.3682 56.9541 21.0304 56.9053 20.7944C56.8237 20.4159 56.8116 20.2531 56.8116 19.3497C56.8116 18.4625 56.8237 18.2794 56.901 17.905C56.9498 17.669 57.0474 17.3027 57.1169 17.0911C57.186 16.8795 57.316 16.558 57.4058 16.3789C57.4952 16.1999 57.6537 15.9272 57.7556 15.7685C57.8614 15.6139 58.0851 15.3412 58.2518 15.1663C58.4189 14.9872 58.6832 14.7471 58.842 14.6331C58.9966 14.5151 59.2449 14.3564 59.3913 14.275C59.5377 14.1977 59.7735 14.0838 59.9203 14.0268C60.0667 13.9698 60.3595 13.8762 60.5711 13.8233C60.7827 13.7663 61.1204 13.7012 61.3238 13.6768C61.5233 13.6524 61.7716 13.6239 61.8731 13.6158C61.975 13.6076 62.2475 13.6076 62.4837 13.6198ZM61.1204 15.8906C60.9291 15.9802 60.746 16.1144 60.5754 16.2854C60.4329 16.4278 60.2498 16.6598 60.1643 16.8062C60.0788 16.9527 59.973 17.1888 59.9281 17.3353C59.8836 17.4818 59.8305 17.7137 59.8102 17.8562L59.7778 18.1085H64.762C64.762 17.905 64.7253 17.7178 64.6847 17.5591C64.6441 17.4045 64.575 17.1928 64.5301 17.0911C64.4895 16.9894 64.3919 16.8185 64.3146 16.7045C64.2412 16.5946 64.1151 16.4318 64.0339 16.3464C63.9523 16.2609 63.8059 16.1307 63.704 16.0615C63.6025 15.9883 63.4479 15.8988 63.3585 15.858C63.2687 15.8174 63.0938 15.7604 62.9716 15.7278C62.8498 15.6953 62.5934 15.6587 62.4021 15.6505C62.1784 15.6342 61.9383 15.6505 61.731 15.6912C61.5518 15.7237 61.275 15.8133 61.1204 15.8906ZM84.3536 13.6198C84.6222 13.628 85.0169 13.6524 85.2285 13.6768C85.4401 13.7012 85.7411 13.746 85.9 13.7826C86.0546 13.8152 86.3107 13.8884 86.4696 13.9373C86.6241 13.9861 86.8642 14.0797 86.9985 14.1407C87.1328 14.2058 87.3522 14.332 87.4865 14.4215C87.6208 14.5111 87.8324 14.686 87.9546 14.8122C88.0768 14.9343 88.2435 15.1296 88.3208 15.2395C88.3938 15.3535 88.5078 15.5528 88.5691 15.6871C88.63 15.8214 88.7194 16.0778 88.7643 16.2569C88.8455 16.5743 88.8498 16.6679 88.8537 19.7159C88.8537 21.4414 88.8701 23.1506 88.8865 23.5209C88.915 24.0214 88.9435 24.2656 89.0083 24.4772C89.0817 24.7051 89.0899 24.7703 89.045 24.7906C89.0165 24.8109 88.402 24.8232 87.6778 24.8232C86.8845 24.8232 86.3353 24.8069 86.2865 24.7824C86.2334 24.758 86.1764 24.6441 86.1194 24.4691C86.0749 24.3185 86.0179 24.0174 85.9445 23.4192L85.7208 23.6837C85.5947 23.8302 85.4319 24.0052 85.3546 24.0703C85.2773 24.1395 85.1227 24.2575 85.0087 24.3308C84.8947 24.4081 84.6628 24.5342 84.4961 24.6115C84.3294 24.6889 84.0729 24.7906 83.9265 24.8313C83.7801 24.8761 83.483 24.9493 83.2632 24.99C83.0149 25.0388 82.6894 25.0673 82.3884 25.0673C82.071 25.0673 81.7836 25.0415 81.5256 24.99C81.3144 24.9452 81.0376 24.8761 80.9154 24.8313C80.7932 24.7906 80.5738 24.6929 80.427 24.6237C80.2806 24.5505 80.0323 24.3918 79.8777 24.2738C79.7192 24.1517 79.5361 23.993 79.467 23.9197C79.3979 23.8465 79.2636 23.6756 79.1699 23.5413C79.0762 23.407 78.9544 23.1791 78.8974 23.0326C78.8404 22.8861 78.767 22.6378 78.7346 22.4751C78.7019 22.3123 78.6776 22.003 78.6776 21.7914C78.6776 21.5798 78.7061 21.2623 78.7385 21.0914C78.7713 20.9164 78.8361 20.6845 78.8771 20.5705C78.9177 20.4606 78.995 20.2938 79.0438 20.2043C79.0926 20.1148 79.1781 19.9764 79.2351 19.8991C79.2921 19.8217 79.3979 19.7037 79.467 19.6345C79.5361 19.5694 79.6661 19.4555 79.7559 19.3822C79.8453 19.313 80.0936 19.1666 80.3052 19.0567C80.5168 18.9468 80.8666 18.8003 81.0782 18.7271C81.2898 18.6579 81.656 18.552 81.8922 18.4991C82.128 18.4422 82.5024 18.373 82.7261 18.3364C82.9498 18.3038 83.3975 18.2387 83.7231 18.1899C84.0483 18.141 84.4676 18.0678 84.6589 18.0271C84.8502 17.9823 85.0942 17.9132 85.2082 17.8724C85.3179 17.8318 85.4846 17.7504 85.5744 17.6975C85.6638 17.6405 85.7817 17.5225 85.8387 17.4329C85.9242 17.3027 85.9406 17.2254 85.9406 16.9894C85.9363 16.79 85.9121 16.6475 85.8551 16.5214C85.8102 16.4197 85.7087 16.2731 85.6271 16.1958C85.5459 16.1185 85.3913 16.0046 85.2855 15.9435C85.1754 15.8825 84.9478 15.8051 84.7807 15.7685C84.614 15.7319 84.3087 15.6993 84.1096 15.6993C83.9062 15.6953 83.6333 15.7156 83.499 15.7441C83.3647 15.7726 83.1086 15.8662 82.9294 15.9517C82.7018 16.0615 82.5308 16.1795 82.3681 16.3464C82.2014 16.5132 82.0831 16.6882 81.9613 16.9365C81.8149 17.2417 81.7739 17.2905 81.6884 17.2946C81.6318 17.2946 81.3468 17.258 81.0579 17.2132C80.7651 17.1684 80.3091 17.0952 80.0405 17.0504C79.7719 17.0097 79.4549 16.965 79.3366 16.9528C79.1863 16.9365 79.125 16.9121 79.125 16.8673C79.125 16.8347 79.1699 16.6638 79.2308 16.4929C79.2878 16.3179 79.3979 16.0575 79.4791 15.9109C79.5603 15.7645 79.7028 15.5447 79.7965 15.4226C79.8902 15.3005 80.0854 15.093 80.2279 14.9587C80.3704 14.8285 80.6347 14.625 80.8139 14.507C80.9927 14.389 81.2652 14.2343 81.4241 14.1611C81.5787 14.0878 81.8188 13.9942 81.9531 13.9495C82.0874 13.9047 82.3232 13.8355 82.4821 13.7948C82.6367 13.7541 82.9419 13.7012 83.1531 13.6768C83.3647 13.6524 83.613 13.6239 83.7024 13.6158C83.7922 13.6076 84.085 13.6076 84.3536 13.6198ZM85.4725 19.6793C85.3058 19.7363 84.8174 19.838 84.3942 19.9072C83.9671 19.9723 83.4545 20.0659 83.255 20.1107C83.0516 20.1554 82.7506 20.2572 82.5879 20.3386C82.4208 20.424 82.1932 20.5746 82.0792 20.6763C81.9488 20.7903 81.8352 20.949 81.7739 21.0833C81.6884 21.2664 81.6724 21.3722 81.6724 21.6897C81.6681 21.9786 81.6884 22.1251 81.7415 22.2594C81.7864 22.3611 81.8758 22.5117 81.9449 22.6012C82.0222 22.6907 82.1768 22.8047 82.3193 22.8739C82.4536 22.939 82.6733 23.0122 82.8076 23.0366C82.9415 23.0651 83.2101 23.0733 83.4178 23.0611C83.6173 23.0489 83.914 23 84.0768 22.9552C84.2396 22.9064 84.4961 22.8128 84.6464 22.7396C84.842 22.646 85.0208 22.5076 85.2527 22.2797C85.4358 22.1007 85.6271 21.8727 85.6759 21.771C85.729 21.6693 85.8063 21.478 85.8512 21.3437C85.9121 21.1484 85.9324 20.9449 85.9488 20.2979C85.9648 19.6305 85.9566 19.4921 85.9121 19.4921C85.8793 19.4921 85.8387 19.5125 85.8145 19.5328C85.7942 19.5532 85.6396 19.6224 85.4725 19.6793ZM100.487 13.6198C100.723 13.628 101.06 13.6524 101.239 13.6768C101.419 13.7012 101.683 13.746 101.829 13.7826C101.976 13.8152 102.204 13.8803 102.338 13.925C102.472 13.9698 102.773 14.1001 103.009 14.214C103.245 14.3279 103.563 14.5151 103.722 14.6291C103.876 14.7471 104.128 14.9668 104.279 15.1215C104.429 15.2761 104.612 15.4837 104.682 15.5854C104.755 15.6871 104.897 15.9069 104.995 16.0737C105.093 16.2406 105.235 16.5255 105.308 16.7045C105.385 16.8836 105.491 17.2051 105.548 17.4167C105.605 17.6283 105.682 18.023 105.715 18.2916C105.748 18.5602 105.776 19.0404 105.776 19.3619C105.776 19.838 105.764 19.9438 105.715 19.9601C105.682 19.9723 103.872 19.9805 97.7403 19.9805L97.7688 20.2857C97.7848 20.4525 97.8297 20.7252 97.8664 20.8879C97.9031 21.0507 97.9843 21.299 98.0413 21.4455C98.1022 21.592 98.2205 21.8198 98.3099 21.9501C98.3993 22.0844 98.5742 22.2919 98.6963 22.4099C98.8185 22.532 99.0301 22.6826 99.1644 22.7477C99.2983 22.8169 99.5263 22.8983 99.6727 22.9349C99.8804 22.9878 100.055 22.996 100.487 22.9797C100.792 22.9675 101.117 22.9308 101.219 22.8983C101.321 22.8657 101.467 22.8088 101.545 22.768C101.622 22.7274 101.764 22.6378 101.862 22.5687C101.96 22.4995 102.138 22.3164 102.257 22.1576C102.375 22.003 102.509 21.7955 102.558 21.7018C102.602 21.6042 102.643 21.5065 102.639 21.478C102.639 21.4495 102.664 21.4048 102.692 21.3763C102.733 21.3397 102.847 21.3356 103.172 21.3641C103.408 21.3844 103.835 21.4211 104.128 21.4455C104.417 21.4699 104.877 21.5065 105.145 21.5269C105.414 21.5472 105.642 21.5757 105.654 21.5879C105.666 21.6042 105.63 21.7344 105.577 21.885C105.524 22.0355 105.418 22.2756 105.341 22.4222C105.264 22.5687 105.093 22.8291 104.966 23.0082C104.84 23.1831 104.584 23.4761 104.393 23.6593C104.201 23.8424 103.937 24.0662 103.803 24.1598C103.668 24.2494 103.428 24.3918 103.274 24.4691C103.115 24.5464 102.818 24.6685 102.61 24.7377C102.403 24.8069 102.029 24.9046 101.777 24.9493C101.455 25.0104 101.085 25.0429 100.527 25.0551C99.8355 25.0755 99.6688 25.0633 99.2253 24.99C98.9446 24.9412 98.6151 24.872 98.493 24.8394C98.3708 24.8028 98.151 24.7295 98.0046 24.6726C97.8582 24.6156 97.622 24.5098 97.4756 24.4366C97.3292 24.3633 97.0809 24.2127 96.9263 24.0988C96.7678 23.9889 96.5113 23.7691 96.3567 23.6145C96.1982 23.4599 95.9663 23.1872 95.8398 23.0082C95.7137 22.8332 95.5267 22.5239 95.4291 22.3204C95.3272 22.121 95.1972 21.8077 95.1402 21.6286C95.0789 21.4496 94.9938 21.1402 94.9489 20.9368C94.904 20.7374 94.8513 20.3345 94.8268 20.0415C94.8025 19.7525 94.7943 19.2561 94.8107 18.9427C94.8228 18.6294 94.8798 18.1533 94.9286 17.8847C94.9813 17.6161 95.0832 17.2213 95.1566 17.0097C95.2257 16.7981 95.3678 16.4685 95.4697 16.2772C95.5673 16.086 95.7547 15.7889 95.8808 15.6098C96.0069 15.4348 96.2509 15.1622 96.4176 14.9994C96.5886 14.8407 96.8533 14.625 97.0079 14.5233C97.1664 14.4215 97.4186 14.271 97.5775 14.1896C97.7321 14.1082 98.0007 13.9983 98.1674 13.9413C98.3341 13.8884 98.5824 13.8152 98.7166 13.7826C98.8509 13.7501 99.1359 13.7012 99.3475 13.6768C99.5591 13.6524 99.807 13.6239 99.8968 13.6158C99.9862 13.6076 100.251 13.6076 100.487 13.6198ZM99.5712 15.736C99.4369 15.7685 99.2335 15.8418 99.1234 15.8947C99.0098 15.9476 98.8103 16.09 98.676 16.208C98.5417 16.326 98.3544 16.5417 98.2568 16.6882C98.1592 16.8307 98.0452 17.0504 97.9964 17.1725C97.9519 17.2946 97.8867 17.5266 97.8582 17.6812C97.8258 17.8399 97.8012 17.9986 97.8012 18.0393C97.8012 18.1044 97.9476 18.1085 100.304 18.1085H102.806C102.769 17.905 102.729 17.7178 102.696 17.5591C102.659 17.4045 102.574 17.1562 102.505 17.0138C102.436 16.8714 102.285 16.6435 102.171 16.5051C102.061 16.3708 101.886 16.1918 101.785 16.1145C101.687 16.0371 101.524 15.9354 101.422 15.8865C101.321 15.8377 101.121 15.7685 100.975 15.7278C100.828 15.6912 100.564 15.6546 100.385 15.6464C100.206 15.6383 100.003 15.6424 99.9374 15.6546C99.8683 15.6627 99.7055 15.6993 99.5712 15.736ZM133.526 13.6198C133.807 13.628 134.189 13.6524 134.38 13.6768C134.571 13.6972 134.865 13.746 135.031 13.7786C135.198 13.8152 135.463 13.8844 135.621 13.9373C135.776 13.9861 136.024 14.0878 136.17 14.1611C136.317 14.2343 136.545 14.3727 136.679 14.4663C136.813 14.5599 137.041 14.7674 137.188 14.9221C137.342 15.0889 137.521 15.3372 137.619 15.5284C137.712 15.7034 137.831 15.9883 137.883 16.1551C137.973 16.4603 137.973 16.4603 138.001 20.2653C138.022 22.8209 138.046 24.1354 138.079 24.2656C138.103 24.3714 138.152 24.5139 138.184 24.579C138.238 24.6889 138.238 24.7092 138.181 24.7621C138.127 24.815 137.912 24.8232 135.438 24.8232L135.361 24.7133C135.32 24.6522 135.267 24.5342 135.243 24.4569C135.218 24.3796 135.178 24.1842 135.153 24.0214C135.133 23.8587 135.112 23.6593 135.112 23.5819C135.112 23.5046 135.096 23.4395 135.08 23.4395C135.064 23.4395 134.995 23.5128 134.929 23.6064C134.86 23.7 134.714 23.8627 134.604 23.9685C134.49 24.0743 134.27 24.2453 134.116 24.347C133.957 24.4488 133.737 24.5708 133.627 24.6197C133.513 24.6685 133.322 24.7458 133.2 24.7906C133.078 24.8353 132.809 24.9086 132.61 24.9534C132.382 25.0063 132.028 25.0429 131.674 25.0592C131.186 25.0755 131.04 25.0673 130.657 24.9859C130.409 24.9371 130.079 24.8476 129.925 24.7865C129.766 24.7255 129.502 24.5952 129.335 24.5017C129.135 24.3837 128.899 24.1924 128.663 23.9523C128.383 23.6674 128.261 23.5128 128.147 23.2767C128.065 23.1099 127.972 22.882 127.935 22.768C127.903 22.6582 127.854 22.3896 127.834 22.178C127.805 21.9135 127.805 21.6693 127.834 21.4048C127.854 21.1931 127.911 20.9002 127.955 20.7536C127.996 20.6072 128.078 20.3996 128.135 20.2857C128.192 20.1758 128.301 19.9967 128.379 19.8909C128.456 19.7851 128.643 19.5939 128.794 19.4677C128.944 19.3415 129.099 19.2317 129.131 19.2154C129.164 19.2032 129.274 19.1421 129.376 19.0852C129.477 19.0241 129.75 18.902 129.986 18.8125C130.222 18.7189 130.604 18.5968 130.84 18.5399C131.076 18.4829 131.487 18.4015 131.756 18.3567C132.024 18.3119 132.517 18.2387 132.854 18.1899C133.188 18.141 133.611 18.0678 133.79 18.023C133.969 17.9823 134.205 17.9172 134.319 17.8806C134.429 17.8399 134.588 17.7707 134.665 17.7219C134.742 17.6731 134.856 17.5754 134.917 17.5062C134.978 17.4329 135.043 17.3068 135.055 17.2254C135.072 17.1399 135.072 16.969 135.064 16.847C135.052 16.7249 135.003 16.5499 134.958 16.4603C134.913 16.3708 134.799 16.2243 134.702 16.1389C134.604 16.0493 134.429 15.9354 134.319 15.8865C134.205 15.8377 133.998 15.7767 133.851 15.7482C133.705 15.7197 133.412 15.6993 133.2 15.6993C132.972 15.6993 132.704 15.7278 132.549 15.7645C132.403 15.8051 132.167 15.8947 132.02 15.9639C131.866 16.0412 131.654 16.1958 131.508 16.3383C131.321 16.5214 131.215 16.6719 131.089 16.9405C130.938 17.258 130.909 17.2946 130.808 17.2946C130.747 17.2946 130.478 17.258 130.209 17.2132C129.941 17.1684 129.42 17.087 129.05 17.0301C128.68 16.9771 128.35 16.9284 128.318 16.9284C128.269 16.9284 128.261 16.8958 128.281 16.7778C128.293 16.6923 128.366 16.4766 128.436 16.2975C128.509 16.1185 128.663 15.8255 128.781 15.6464C128.899 15.4674 129.115 15.2069 129.258 15.0686C129.4 14.9261 129.628 14.7308 129.762 14.6331C129.896 14.5314 130.161 14.3686 130.352 14.271C130.543 14.1692 130.852 14.0349 131.044 13.9658C131.235 13.9006 131.516 13.8152 131.674 13.7826C131.829 13.746 132.114 13.6972 132.305 13.6768C132.496 13.6524 132.732 13.6239 132.834 13.6158C132.936 13.6076 133.245 13.6076 133.526 13.6198ZM134.543 19.6997C134.396 19.7444 134.087 19.8177 133.851 19.8584C133.615 19.9031 133.204 19.9682 132.936 20.0049C132.667 20.0415 132.281 20.1269 132.081 20.1921C131.878 20.2612 131.597 20.3915 131.455 20.4851C131.308 20.5787 131.129 20.7333 131.056 20.835C130.979 20.9368 130.889 21.1118 130.857 21.2216C130.824 21.3356 130.8 21.5594 130.8 21.7222C130.8 21.9257 130.828 22.0884 130.889 22.2512C130.938 22.3774 131.036 22.5442 131.101 22.6216C131.17 22.6948 131.3 22.8006 131.39 22.8535C131.479 22.9064 131.67 22.9756 131.817 23.0082C131.963 23.0448 132.199 23.0733 132.346 23.0733C132.492 23.0733 132.728 23.0529 132.875 23.0285C133.021 23.0041 133.265 22.9431 133.424 22.8861C133.579 22.8332 133.81 22.7274 133.933 22.6541C134.055 22.5849 134.279 22.4018 134.429 22.2512C134.592 22.0884 134.754 21.8768 134.828 21.7303C134.893 21.596 134.978 21.3722 135.011 21.2339C135.052 21.063 135.073 20.7374 135.076 20.2572C135.076 19.838 135.064 19.5287 135.039 19.5206C135.019 19.5084 134.958 19.5247 134.905 19.5572C134.852 19.5898 134.689 19.6508 134.543 19.6997ZM68.7495 13.8762H73.2457C77.2047 13.8762 77.7419 13.8844 77.7622 13.9373C77.7743 13.9698 77.7825 14.4907 77.7825 16.1755L77.5748 16.4197C77.4569 16.5539 77.2332 16.8103 77.0704 16.9894C76.9076 17.1684 76.1834 17.9823 75.4592 18.8003C74.735 19.6183 74.1327 20.2938 74.1206 20.306C74.1081 20.3182 73.8969 20.5543 73.6525 20.835C73.4085 21.1159 73.1926 21.3641 73.1684 21.3844C73.1438 21.4088 72.9162 21.6612 72.664 21.946C72.4114 22.2309 72.208 22.471 72.208 22.4832C72.208 22.4954 73.4327 22.5035 74.9341 22.5035C77.3023 22.5035 77.6685 22.5117 77.7216 22.5646C77.7704 22.6175 77.7825 22.7965 77.7825 23.6633C77.7825 24.5546 77.7743 24.7092 77.7173 24.7621C77.6603 24.815 77.095 24.8232 73.1196 24.8232C70.6254 24.8232 68.5582 24.815 68.5258 24.8028C68.4727 24.7865 68.4649 24.6197 68.4606 22.4832L68.6601 22.2594C68.7698 22.1373 69.193 21.6612 69.6041 21.2013C70.0152 20.7415 70.479 20.2206 70.6375 20.0456C70.7963 19.8665 70.9548 19.6915 70.9876 19.659C71.02 19.6224 71.3413 19.2642 71.6993 18.8614C72.0577 18.4585 72.4157 18.0556 72.4969 17.9661C72.5785 17.8765 72.9568 17.4533 73.3433 17.0219C73.7259 16.5906 74.039 16.2284 74.039 16.2162C74.039 16.204 72.8471 16.1958 68.7495 16.1958V13.8762ZM6.87857 14.8041C7.06573 14.8081 7.17968 14.8285 7.16747 14.8529C7.15525 14.8773 7.01693 14.8936 6.86229 14.8936C6.7036 14.8936 6.56934 14.8814 6.55712 14.8651C6.54494 14.8488 6.54494 14.8244 6.55306 14.8122C6.56122 14.8 6.7077 14.7959 6.87857 14.8041ZM10.451 14.8122C10.9759 14.8122 11.2485 14.8285 11.2363 14.8529C11.2241 14.8773 10.9352 14.8936 10.4917 14.8936C10.097 14.8936 9.74306 14.8732 9.7105 14.8529C9.66982 14.8285 9.918 14.8122 10.451 14.8122ZM15.061 17.905C20.6639 17.905 23.5039 17.9172 23.5039 17.9457C23.5039 17.9742 20.6557 17.9864 15.0407 17.9864C9.40939 17.9864 6.58562 17.9742 6.59784 17.9457C6.61412 17.9213 9.47857 17.905 15.061 17.905ZM23.9108 17.9457C23.98 17.9457 24.0329 17.9661 24.0329 17.9864C24.0329 18.0108 23.9678 18.0271 23.8904 18.0271C23.8091 18.0271 23.7562 18.0108 23.7684 17.9864C23.7806 17.9661 23.8457 17.9457 23.9108 17.9457ZM6.60596 18.1695C6.61412 18.2591 6.61412 18.3974 6.60596 18.4747C6.59784 18.552 6.58968 18.4788 6.58968 18.312C6.58968 18.1451 6.59784 18.08 6.60596 18.1695ZM15.3865 19.0241C17.6 19.0241 18.5155 19.0282 17.421 19.0363C16.3224 19.0404 14.5117 19.0404 13.3928 19.0363C12.2739 19.0282 13.169 19.0241 15.3865 19.0241ZM27.0479 19.4636C27.0642 19.4921 27.0723 19.5287 27.0601 19.545C27.0519 19.5613 25.3227 19.5735 23.2191 19.5735C20.1878 19.5735 19.3944 19.5654 19.3944 19.5247C19.3944 19.484 20.1634 19.4758 23.1377 19.484C25.3715 19.4881 26.9095 19.4758 26.9503 19.4555C26.9936 19.4311 27.0262 19.4338 27.0479 19.4636ZM6.58156 21.7873C6.61002 21.8077 6.6263 21.9501 6.61818 22.5035L11.277 22.5239L6.58562 22.5646L6.5734 22.2024C6.56528 22.003 6.55306 21.8198 6.549 21.7995C6.54084 21.7751 6.55712 21.771 6.58156 21.7873ZM13.3399 22.8372C14.4548 22.8332 15.3744 22.8454 15.3825 22.8617C15.3906 22.8779 14.8006 22.8861 14.0683 22.882C13.3399 22.8739 12.4204 22.8657 12.0298 22.8576C11.6391 22.8535 12.2291 22.8454 13.3399 22.8372ZM6.60596 23.9075C6.61412 23.997 6.61412 24.1517 6.60596 24.2534C6.59784 24.3552 6.58968 24.2819 6.58968 24.0906C6.58968 23.8994 6.59784 23.818 6.60596 23.9075ZM8.9374 24.4569C10.4958 24.4569 11.2892 24.4732 11.277 24.4976C11.2648 24.5261 10.4348 24.5383 8.91706 24.5383C7.38312 24.5383 6.5775 24.5261 6.5775 24.4976C6.5775 24.4732 7.39124 24.4569 8.9374 24.4569ZM6.58968 25.6655C6.61002 25.6737 6.62224 25.8364 6.61818 26.3696H8.95774C10.5039 26.3696 11.2892 26.3858 11.277 26.4102C11.2648 26.4387 10.4469 26.451 8.94556 26.451C7.67607 26.451 6.61818 26.4387 6.59784 26.4184C6.5734 26.4021 6.55712 26.223 6.55712 26.0196C6.55712 25.812 6.5734 25.6533 6.58968 25.6655ZM17.4616 25.6574C23.4144 25.6574 25.8395 25.6615 22.8529 25.6696C19.8664 25.6737 14.9959 25.6737 12.0298 25.6696C9.06354 25.6615 11.5089 25.6574 17.4616 25.6574ZM28.3866 25.6371C28.3987 25.6371 28.411 25.6655 28.411 25.6981C28.4069 25.7306 28.3825 25.7673 28.354 25.7795C28.3255 25.7917 28.3052 25.8446 28.3052 25.9016C28.3052 25.9585 28.2767 26.0114 28.2441 26.0237C28.2116 26.0358 28.1912 26.0643 28.2035 26.0847C28.2156 26.1091 28.2035 26.1254 28.1831 26.1254C28.1587 26.1254 28.1465 26.1132 28.1506 26.0928C28.1587 26.0766 28.2075 25.9667 28.2604 25.8487C28.3133 25.7347 28.3703 25.6371 28.3866 25.6371ZM15.3865 26.7154C17.6 26.7154 18.5155 26.7195 17.421 26.7277C16.3224 26.7317 14.5117 26.7317 13.3928 26.7277C12.2739 26.7195 13.169 26.7154 15.3865 26.7154ZM27.4426 27.155C27.4507 27.1468 27.4304 27.1712 27.4019 27.2079C27.3531 27.2608 26.9095 27.2689 23.3697 27.2689C20.7493 27.2649 19.3944 27.2526 19.3944 27.2241C19.3944 27.1997 20.7656 27.1794 23.4103 27.1753C25.6197 27.1672 27.4344 27.1591 27.4426 27.155ZM6.61818 27.6392V28.2822H8.95774C10.2435 28.2822 11.2973 28.2985 11.2973 28.3148C11.2973 28.3311 10.2394 28.3351 6.59784 28.3026L6.58562 28.0014C6.57746 27.8346 6.58156 27.6759 6.59374 27.6474C6.59374 27.6433 6.6019 27.6392 6.61818 27.6392ZM6.61818 27.6311H6.68736C6.6548 27.6338 6.63173 27.6365 6.61818 27.6392V27.6311ZM6.68736 27.6311C7.21221 27.5986 10.4063 27.5945 26.9014 27.6107L6.68736 27.6311ZM15.3459 28.6078C18.0028 28.6078 19.3455 28.62 19.3333 28.6485C19.3211 28.6729 17.9418 28.6892 15.3255 28.6892C12.693 28.6892 11.338 28.6729 11.338 28.6485C11.338 28.62 12.7011 28.6078 15.3459 28.6078ZM19.7606 29.0839C19.9722 29.0921 20.1268 29.1124 20.1268 29.1368C20.1268 29.1612 19.9762 29.1775 19.7606 29.1775C19.4961 29.1775 19.3944 29.1612 19.3944 29.1246C19.3944 29.088 19.488 29.0758 19.7606 29.0839ZM23.5609 29.0554C23.6423 29.0554 23.7074 29.0717 23.7074 29.0961C23.7074 29.1165 23.6504 29.1368 23.5853 29.1368C23.5161 29.1368 23.451 29.1165 23.4388 29.0961C23.4226 29.0717 23.4754 29.0554 23.5609 29.0554Z"
            fill="white" />
    </g>
    <defs>
        <clipPath id="clip0_422_854">
            <rect width="159.945" height="34.55" fill="white" transform="translate(0.0273438)" />
        </clipPath>
    </defs>
</svg>