<svg width="24" height="24" viewBox="0 0 24 24" fill="none" xmlns="http://www.w3.org/2000/svg">
<path d="M19.4423 23.2969H4.46391C2.39409 23.2969 0.703125 21.6059 0.703125 19.5361V4.55766C0.703125 2.48784 2.39409 0.796875 4.46391 0.796875H19.4423C21.5122 0.796875 23.2031 2.48784 23.2031 4.55766V19.5361C23.2031 21.6152 21.5214 23.2969 19.4423 23.2969Z" fill="white"/>
<path d="M11.9627 17.8316C10.4195 17.8316 8.96881 17.2309 7.87846 16.1406C6.78811 15.0502 6.1875 13.5995 6.1875 12.0564C6.1875 10.5133 6.78811 9.06256 7.87846 7.97221C8.96881 6.88187 10.4195 6.28125 11.9627 6.28125C13.5058 6.28125 14.9565 6.88187 16.0468 7.97221C17.1372 9.06256 17.7378 10.5133 17.7378 12.0564C17.7378 13.5995 17.1372 15.0502 16.0468 16.1406C14.9473 17.2309 13.5058 17.8316 11.9627 17.8316ZM11.9627 7.5102C9.45855 7.5102 7.41645 9.54306 7.41645 12.0564C7.41645 14.5605 9.44931 16.6026 11.9627 16.6026C14.4668 16.6026 16.5089 14.5697 16.5089 12.0564C16.4996 9.5523 14.4668 7.5102 11.9627 7.5102Z" fill="#313131"/>
<path d="M18.8589 6.09272C19.4713 6.09272 19.9677 5.59626 19.9677 4.98386C19.9677 4.37145 19.4713 3.875 18.8589 3.875C18.2465 3.875 17.75 4.37145 17.75 4.98386C17.75 5.59626 18.2465 6.09272 18.8589 6.09272Z" fill="#313131"/>
</svg>
