<svg width="18" height="18" viewBox="0 0 18 18" fill="none" xmlns="http://www.w3.org/2000/svg">
<path d="M4.06584 5.92188H0.304688V17.9161H4.06584V5.92188Z" fill="currentColor"/>
<path d="M14.2395 5.66396C14.1009 5.64663 13.9536 5.63796 13.8062 5.62929C11.7003 5.54263 10.5131 6.79058 10.0971 7.32789C9.98443 7.47522 9.93243 7.56188 9.93243 7.56188V5.95861H6.33594V17.9528H9.93243H10.0971C10.0971 16.7308 10.0971 15.5176 10.0971 14.2956C10.0971 13.637 10.0971 12.9783 10.0971 12.3197C10.0971 11.5051 10.0364 10.6384 10.4437 9.89312C10.7904 9.26915 11.4143 8.95716 12.1163 8.95716C14.1962 8.95716 14.2395 10.8377 14.2395 11.0111C14.2395 11.0197 14.2395 11.0284 14.2395 11.0284V18.0048H18.0007V10.1791C18.0007 7.50122 16.6401 5.92395 14.2395 5.66396Z" fill="currentColor"/>
<path d="M2.18389 4.36782C3.39002 4.36782 4.36779 3.39005 4.36779 2.18391C4.36779 0.977771 3.39002 0 2.18389 0C0.977757 0 0 0.977771 0 2.18391C0 3.39005 0.977757 4.36782 2.18389 4.36782Z" fill="currentColor"/>
</svg>
