<svg width="1490" height="351" viewBox="0 0 1490 351" fill="none" xmlns="http://www.w3.org/2000/svg">
<path d="M113.3 347C112.647 344.713 111.993 342.59 111.34 340.63C110.687 338.67 110.033 336.22 109.38 333.28C109.053 330.34 108.727 326.583 108.4 322.01C108.4 317.437 108.4 311.72 108.4 304.86V250.96C108.4 234.953 105.623 223.683 100.07 217.15C94.5167 210.617 85.5333 207.35 73.12 207.35H54.5V347H0.600001V3.99998H81.94C110.033 3.99998 130.287 10.5333 142.7 23.6C155.44 36.6667 161.81 56.43 161.81 82.89V109.84C161.81 145.12 150.05 168.313 126.53 179.42C140.25 184.973 149.56 194.12 154.46 206.86C159.687 219.273 162.3 234.463 162.3 252.43V305.35C162.3 313.843 162.627 321.357 163.28 327.89C163.933 334.097 165.567 340.467 168.18 347H113.3ZM54.5 53V158.35H75.57C85.6967 158.35 93.5367 155.737 99.09 150.51C104.97 145.283 107.91 135.81 107.91 122.09V88.28C107.91 75.8667 105.623 66.8833 101.05 61.33C96.8033 55.7767 89.9433 53 80.47 53H54.5ZM197.748 3.99998H251.648V347H197.748V3.99998ZM372.399 283.79L413.559 3.99998H463.049L410.129 347H329.769L276.849 3.99998H331.239L372.399 283.79ZM542.107 148.55H616.097V197.55H542.107V298H635.207V347H488.207V3.99998H635.207V53H542.107V148.55ZM781.308 347C780.654 344.713 780.001 342.59 779.348 340.63C778.694 338.67 778.041 336.22 777.388 333.28C777.061 330.34 776.734 326.583 776.408 322.01C776.408 317.437 776.408 311.72 776.408 304.86V250.96C776.408 234.953 773.631 223.683 768.078 217.15C762.524 210.617 753.541 207.35 741.128 207.35H722.508V347H668.608V3.99998H749.948C778.041 3.99998 798.294 10.5333 810.708 23.6C823.448 36.6667 829.818 56.43 829.818 82.89V109.84C829.818 145.12 818.058 168.313 794.538 179.42C808.258 184.973 817.568 194.12 822.468 206.86C827.694 219.273 830.308 234.463 830.308 252.43V305.35C830.308 313.843 830.634 321.357 831.288 327.89C831.941 334.097 833.574 340.467 836.188 347H781.308ZM722.508 53V158.35H743.578C753.704 158.35 761.544 155.737 767.098 150.51C772.978 145.283 775.918 135.81 775.918 122.09V88.28C775.918 75.8667 773.631 66.8833 769.058 61.33C764.811 55.7767 757.951 53 748.478 53H722.508ZM858.896 86.32C858.896 58.5533 865.43 37.32 878.496 22.62C891.89 7.59332 911.816 0.0799979 938.276 0.0799979C964.736 0.0799979 984.5 7.59332 997.566 22.62C1010.96 37.32 1017.66 58.5533 1017.66 86.32V97.1H966.696V82.89C966.696 70.4767 964.246 61.82 959.346 56.92C954.773 51.6933 948.24 49.08 939.746 49.08C931.253 49.08 924.556 51.6933 919.656 56.92C915.083 61.82 912.796 70.4767 912.796 82.89C912.796 94.65 915.41 105.103 920.636 114.25C925.863 123.07 932.396 131.563 940.236 139.73C948.076 147.57 956.406 155.573 965.226 163.74C974.373 171.58 982.866 180.237 990.706 189.71C998.546 199.183 1005.08 209.963 1010.31 222.05C1015.53 234.137 1018.15 248.347 1018.15 264.68C1018.15 292.447 1011.29 313.843 997.566 328.87C984.173 343.57 964.246 350.92 937.786 350.92C911.326 350.92 891.236 343.57 877.516 328.87C864.123 313.843 857.426 292.447 857.426 264.68V243.61H908.386V268.11C908.386 280.523 910.836 289.18 915.736 294.08C920.963 298.98 927.823 301.43 936.316 301.43C944.81 301.43 951.506 298.98 956.406 294.08C961.633 289.18 964.246 280.523 964.246 268.11C964.246 256.35 961.633 246.06 956.406 237.24C951.18 228.093 944.646 219.6 936.806 211.76C928.966 203.593 920.473 195.59 911.326 187.75C902.506 179.583 894.176 170.763 886.336 161.29C878.496 151.817 871.963 141.037 866.736 128.95C861.51 116.863 858.896 102.653 858.896 86.32ZM1049.03 3.99998H1102.93V347H1049.03V3.99998ZM1142.34 3.99998H1227.6C1254.71 3.99998 1274.8 11.1866 1287.87 25.56C1301.26 39.9333 1307.96 61.0033 1307.96 88.77V262.23C1307.96 289.997 1301.26 311.067 1287.87 325.44C1274.8 339.813 1254.71 347 1227.6 347H1142.34V3.99998ZM1196.24 53V298H1226.62C1235.11 298 1241.81 295.55 1246.71 290.65C1251.61 285.75 1254.06 277.093 1254.06 264.68V86.32C1254.06 73.9066 1251.61 65.25 1246.71 60.35C1241.81 55.45 1235.11 53 1226.62 53H1196.24ZM1396.26 148.55H1470.25V197.55H1396.26V298H1489.36V347H1342.36V3.99998H1489.36V53H1396.26V148.55Z" fill="white"/>
</svg>
