<svg width="240" height="40" viewBox="0 0 240 40" fill="none" xmlns="http://www.w3.org/2000/svg">
<path d="M20 0L24.4903 13.8197H39.0211L27.2654 22.3607L31.7557 36.1803L20 27.6393L8.2443 36.1803L12.7346 22.3607L0.97887 13.8197H15.5097L20 0Z" fill="#313131"/>
<path d="M70 0L74.4903 13.8197H89.0211L77.2654 22.3607L81.7557 36.1803L70 27.6393L58.2443 36.1803L62.7346 22.3607L50.9789 13.8197H65.5097L70 0Z" fill="#313131"/>
<path d="M120 0L124.49 13.8197H139.021L127.265 22.3607L131.756 36.1803L120 27.6393L108.244 36.1803L112.735 22.3607L100.979 13.8197H115.51L120 0Z" fill="#313131"/>
<path d="M170 0L174.49 13.8197H189.021L177.265 22.3607L181.756 36.1803L170 27.6393L158.244 36.1803L162.735 22.3607L150.979 13.8197H165.51L170 0Z" fill="#313131"/>
<path d="M220 0L224.49 13.8197H239.021L227.265 22.3607L231.756 36.1803L220 27.6393L208.244 36.1803L212.735 22.3607L200.979 13.8197H215.51L220 0Z" fill="#313131"/>
</svg>
